<svg xmlns:xlink="http://www.w3.org/1999/xlink" xmlns="http://www.w3.org/2000/svg" viewBox="0 0 374.1851851851852 162.63619948684706" preserveAspectRatio="xMidYMid meet" class="css-1r4bsbq" id="afgcceca" width="374.1851851851852"  height="162.63619948684706" ><defs id="SvgjsDefs2624"></defs><g id="SvgjsG2625" featurekey="HKaMnE-0" transform="matrix(1.8197344230668728,0,0,1.8197344230668728,-62.49404493266665,-13.962080469991223)" fill="#FFA500"><path xmlns="http://www.w3.org/2000/svg" d="M52.094,93.749c0.001,0,11.108-7.41,0.883-22.909c-4.773-7.235-12.596-14.971-11.701-22.63  c-1.015,0.883-1.937,1.859-2.38,2.453c-1.618,2.169-2.791,4.529-3.392,6.964c-0.697,2.823-0.515,5.795,1.102,8.686  c1.501,2.683,4.107,5.103,6.558,7.537c5.868,5.826,11.036,12.018,9.461,18.607C52.541,92.811,52.5,93.478,52.094,93.749z" fill="#FFA500"></path><path xmlns="http://www.w3.org/2000/svg" d="M59.398,79.14c0.001-0.001,17.835-11.897,1.417-36.782C53.152,30.742,40.592,18.321,42.03,6.024  c-1.365,1.194-3.11,2.985-3.821,3.939c-2.598,3.482-4.481,7.271-5.446,11.181c-1.12,4.533-0.827,9.304,1.77,13.946  c2.41,4.308,6.594,8.193,10.53,12.102c9.421,9.355,17.719,19.295,15.19,29.876C60.116,77.635,60.049,78.706,59.398,79.14z" fill="#FFA500"></path></g><g id="SvgjsG2626" featurekey="J3GnXt-0" transform="matrix(4.50229058527544,0,0,4.50229058527544,82.59204111598076,9.972750595559443)" fill="#FFA500"><path d="M1.8583 6.003 l3.5829 0 l0 2.1123 l-3.623 0 l0.54813 0.40107 c-0.053476 2.3529 -0.053476 7.0321 0 9.3717 l3.0749 0 l0 2.1123 l-3.5829 0 c-0.74866 0 -1.3235 -0.57487 -1.3235 -1.3235 l0 -11.35 c0 -0.74866 0.57487 -1.3235 1.3235 -1.3235 z M6.8315828877005345 13.0348 l0.54813 0.40107 l0 4.7193 l1.8182 0 l0 -5.1203 l-2.3663 0 z M10.802182887700535 12.5134 l0 6.1631 c0 0.70856 -0.61497 1.3235 -1.3235 1.3235 l-2.3797 0 c-0.74866 0 -1.3235 -0.61497 -1.3235 -1.3235 l0 -6.1631 c0 -0.74866 0.57487 -1.3235 1.3235 -1.3235 l2.3797 0 c0.74866 0 1.3235 0.61497 1.3235 1.3235 z M13.195204278074867 18.1684 l1.8182 0 l0 -6.9652 l1.6043 0 l0 7.4733 c0 0.74866 -0.57487 1.3235 -1.3235 1.3235 l-2.3797 0 c-0.74866 0 -1.3235 -0.57487 -1.3235 -1.3235 l0 -7.0722 l-0.33422 -0.40107 l1.9385 0 l0 6.9652 z M17.700560962566847 19.986631 l0 -8.3824 l-0.33422 -0.41444 l4.0374 0 c0.70856 0 1.3235 0.57487 1.3235 1.3235 l0 7.4733 l-1.6043 0 l0 -6.9652 l-2.3663 0 l0.54813 0.41444 l0 6.5508 l-1.6043 0 z M24.57220748663102 13.0749 l0.54813 0.40107 l0 4.6791 l2.5802 0 l0 1.8182 l-2.861 0 c-0.73529 0 -1.3102 -0.57487 -1.3102 -1.3102 l0 -10.682 l1.5909 0 l0 3.262 l1.8048 0 l0 1.8182 z M27.807488449197862 6.016 l3.0882 0 l1.2433 4.7193 l1.2567 -4.7193 l2.754 0 l-0.013369 13.997 l-1.8316 0 l0 -10.267 l-2.1658 8.1283 l0 0.013369 l0 -0.013369 l0 0.013369 l0 -0.013369 l-2.1524 -8.1283 l0 10.267 l-1.8449 0 l0 -13.596 z M38.7834155080214 11.2166 l0 6.9385 l1.8182 0 l0 -6.9385 l1.5909 0 l0 12.553 c0 0.73529 -0.57487 1.3102 -1.3102 1.3102 l-3.6898 0 l0 -1.8316 l3.4091 0 l0 -3.2754 l-2.0989 0 c-0.73529 0 -1.3102 -0.57487 -1.3102 -1.3102 l0 -0.50802 l0 -6.5374 l-0.33422 -0.40107 l1.9251 0 z M42.005343155080226 6.016 l2.139 0 l1.2433 10.053 l1.2299 -10.053 l1.8449 0 l-1.7112 13.997 l-2.7406 0 l-1.6578 -13.583 l-0.013369 0 z M49.478641711229955 13.0348 l0.54813 0.40107 l0 4.7193 l1.8182 0 l0 -5.1203 l-2.3663 0 z M53.44924171122995 12.5134 l0 6.1631 c0 0.70856 -0.61497 1.3235 -1.3235 1.3235 l-2.3797 0 c-0.74866 0 -1.3235 -0.61497 -1.3235 -1.3235 l0 -6.1631 c0 -0.74866 0.57487 -1.3235 1.3235 -1.3235 l2.3797 0 c0.74866 0 1.3235 0.61497 1.3235 1.3235 z M55.29413262032086 13.0749 l0.54813 0.40107 l0 4.6791 l2.5802 0 l0 1.8182 l-2.861 0 c-0.73529 0 -1.3102 -0.57487 -1.3102 -1.3102 l0 -10.682 l1.5909 0 l0 3.262 l1.8048 0 l0 1.8182 z M59.919773796791446 13.0481 l0.54813 0.41444 l0 1.4171 l1.8182 0 l0 -1.8316 l-2.3663 0 z M60.18717379679145 11.2166 l2.3797 0 c0.73529 0 1.3102 0.57487 1.3102 1.3235 l0 2.861 c0 0.74866 -0.57487 1.3235 -1.3102 1.3235 l-2.0989 0 l0 1.4572 l3.4091 0 l0 0.52139 c0 0.73529 -0.57487 1.3102 -1.3102 1.3102 l-2.3797 0 c-0.74866 0 -1.3235 -0.57487 -1.3235 -1.3102 l0 -6.1631 c0 -0.74866 0.57487 -1.3235 1.3235 -1.3235 z" fill="#FFA500"></path></g></svg>