<svg xmlns:xlink="http://www.w3.org/1999/xlink" xmlns="http://www.w3.org/2000/svg" viewBox="0 0 374.38709677419354 115.5000017227665" preserveAspectRatio="xMidYMid meet" class="css-1r4bsbq" id="afgcceca" width="374.38709677419354"  height="115.5000017227665" ><defs id="SvgjsDefs2409"></defs><g id="SvgjsG2410" featurekey="HKaMnE-0" transform="matrix(1.129032258064516,0,0,1.129032258064516,-9.645160213593513,8.35483870967742)" fill="#FFA500"><g xmlns="http://www.w3.org/2000/svg" fill="#FFA500"><path d="M78.4,66.5c-5.5,4.8-9.9,15.2-9.9,15.2s-6.9-11.4-12.9-15.3c-9.5-6.1-13.6-6.2-13.6-6.2V65c0,0,7.8,1.2,11.7,4.6   c8.2,7.1,14.8,18.5,14.8,18.5S74.4,75,80.1,70.5C88.1,64.3,95,65,95,65v-4.8C95,60.1,85.1,60.7,78.4,66.5z" fill="#FFA500"></path><path d="M42,80c-6.4-3.6-17.8-4.3-17.8-4.3s8.7-10.1,10.5-17C37.5,47.9,36.2,44,36.2,44l-4.6,1.6c0,0,1.3,7.7-0.6,12.4   c-4.1,9.9-13,19.8-13,19.8s14.6,1.3,20.7,5.1c8.6,5.4,10.2,12,10.2,12l4.6-1.6C53.5,93.4,49.7,84.4,42,80z" fill="#FFA500"></path><path d="M35.3,36.8c11.3-0.9,14.6-3.4,14.6-3.4l-3-3.8c0,0-6.9,3.7-12.1,3.4c-10.9-0.6-23.3-5.6-23.3-5.6s3.5,14,1.8,20.9   C10.9,58.2,5,61.8,5,61.8l3,3.8c0,0,7.5-6.5,9.1-15.1c1.3-7.1-1.7-18-1.7-18S28,37.4,35.3,36.8z" fill="#FFA500"></path><path d="M37.4,17.8c7.3-1.1,16.7-7.4,16.7-7.4s-0.6,13.2,2.4,19.8c4.6,10.2,8,12.5,8,12.5l2.7-4c0,0-5.9-5.2-7.3-10.2   C56.9,18.2,57.7,5,57.7,5s-12.3,7.8-19.5,8.5c-10.2,1-15.6-3.3-15.6-3.3l-2.7,4.1C19.9,14.2,28.6,19.1,37.4,17.8z" fill="#FFA500"></path><path d="M65,60.5c0,0,3.1-7.2,7.4-10.1c9-6.1,21.9-9.7,21.9-9.7s-11.5-8.9-14.5-15.4c-4.2-9.1-1.9-15.6-1.9-15.6l-4.8-1.2   c0,0-1.9,9.6,2.2,17.4c3.4,6.4,12.5,13.2,12.5,13.2S75,42.9,69.6,47.8c-8.3,7.6-9.4,11.5-9.4,11.5L65,60.5z" fill="#FFA500"></path></g></g><g id="SvgjsG2411" featurekey="J3GnXt-0" transform="matrix(3.9213498645947378,0,0,3.9213498645947378,119.90274548811229,6.460137615487259)" fill="#FFA500"><path d="M1.8583 6.003 l3.5829 0 l0 2.1123 l-3.623 0 l0.54813 0.40107 c-0.053476 2.3529 -0.053476 7.0321 0 9.3717 l3.0749 0 l0 2.1123 l-3.5829 0 c-0.74866 0 -1.3235 -0.57487 -1.3235 -1.3235 l0 -11.35 c0 -0.74866 0.57487 -1.3235 1.3235 -1.3235 z M6.8315828877005345 13.0348 l0.54813 0.40107 l0 4.7193 l1.8182 0 l0 -5.1203 l-2.3663 0 z M10.802182887700535 12.5134 l0 6.1631 c0 0.70856 -0.61497 1.3235 -1.3235 1.3235 l-2.3797 0 c-0.74866 0 -1.3235 -0.61497 -1.3235 -1.3235 l0 -6.1631 c0 -0.74866 0.57487 -1.3235 1.3235 -1.3235 l2.3797 0 c0.74866 0 1.3235 0.61497 1.3235 1.3235 z M13.195204278074867 18.1684 l1.8182 0 l0 -6.9652 l1.6043 0 l0 7.4733 c0 0.74866 -0.57487 1.3235 -1.3235 1.3235 l-2.3797 0 c-0.74866 0 -1.3235 -0.57487 -1.3235 -1.3235 l0 -7.0722 l-0.33422 -0.40107 l1.9385 0 l0 6.9652 z M17.700560962566847 19.986631 l0 -8.3824 l-0.33422 -0.41444 l4.0374 0 c0.70856 0 1.3235 0.57487 1.3235 1.3235 l0 7.4733 l-1.6043 0 l0 -6.9652 l-2.3663 0 l0.54813 0.41444 l0 6.5508 l-1.6043 0 z M24.57220748663102 13.0749 l0.54813 0.40107 l0 4.6791 l2.5802 0 l0 1.8182 l-2.861 0 c-0.73529 0 -1.3102 -0.57487 -1.3102 -1.3102 l0 -10.682 l1.5909 0 l0 3.262 l1.8048 0 l0 1.8182 z M27.807488449197862 6.016 l3.0882 0 l1.2433 4.7193 l1.2567 -4.7193 l2.754 0 l-0.013369 13.997 l-1.8316 0 l0 -10.267 l-2.1658 8.1283 l0 0.013369 l0 -0.013369 l0 0.013369 l0 -0.013369 l-2.1524 -8.1283 l0 10.267 l-1.8449 0 l0 -13.596 z M38.7834155080214 11.2166 l0 6.9385 l1.8182 0 l0 -6.9385 l1.5909 0 l0 12.553 c0 0.73529 -0.57487 1.3102 -1.3102 1.3102 l-3.6898 0 l0 -1.8316 l3.4091 0 l0 -3.2754 l-2.0989 0 c-0.73529 0 -1.3102 -0.57487 -1.3102 -1.3102 l0 -0.50802 l0 -6.5374 l-0.33422 -0.40107 l1.9251 0 z M42.005343155080226 6.016 l2.139 0 l1.2433 10.053 l1.2299 -10.053 l1.8449 0 l-1.7112 13.997 l-2.7406 0 l-1.6578 -13.583 l-0.013369 0 z M49.478641711229955 13.0348 l0.54813 0.40107 l0 4.7193 l1.8182 0 l0 -5.1203 l-2.3663 0 z M53.44924171122995 12.5134 l0 6.1631 c0 0.70856 -0.61497 1.3235 -1.3235 1.3235 l-2.3797 0 c-0.74866 0 -1.3235 -0.61497 -1.3235 -1.3235 l0 -6.1631 c0 -0.74866 0.57487 -1.3235 1.3235 -1.3235 l2.3797 0 c0.74866 0 1.3235 0.61497 1.3235 1.3235 z M55.29413262032086 13.0749 l0.54813 0.40107 l0 4.6791 l2.5802 0 l0 1.8182 l-2.861 0 c-0.73529 0 -1.3102 -0.57487 -1.3102 -1.3102 l0 -10.682 l1.5909 0 l0 3.262 l1.8048 0 l0 1.8182 z M59.919773796791446 13.0481 l0.54813 0.41444 l0 1.4171 l1.8182 0 l0 -1.8316 l-2.3663 0 z M60.18717379679145 11.2166 l2.3797 0 c0.73529 0 1.3102 0.57487 1.3102 1.3235 l0 2.861 c0 0.74866 -0.57487 1.3235 -1.3102 1.3235 l-2.0989 0 l0 1.4572 l3.4091 0 l0 0.52139 c0 0.73529 -0.57487 1.3102 -1.3102 1.3102 l-2.3797 0 c-0.74866 0 -1.3235 -0.57487 -1.3235 -1.3102 l0 -6.1631 c0 -0.74866 0.57487 -1.3235 1.3235 -1.3235 z" fill="#FFA500"></path></g></svg>