<svg xmlns="http://www.w3.org/2000/svg" version="1.1" xmlns:xlink="http://www.w3.org/1999/xlink" xmlns:svgjs="http://svgjs.dev/svgjs" width="1500" height="1500" viewBox="0 0 1500 1500"><rect width="1500" height="1500" fill="#000000"></rect><g transform="matrix(0.6666666666666666,0,0,0.6666666666666666,249.39393939393938,658.9425349998008)"><svg viewBox="0 0 396 72" data-background-color="#ffffff" preserveAspectRatio="xMidYMid meet" height="272" width="1500" xmlns="http://www.w3.org/2000/svg" xmlns:xlink="http://www.w3.org/1999/xlink"><g id="tight-bounds" transform="matrix(1,0,0,1,0.2400000000000091,0.1551699265496893)"><svg viewBox="0 0 395.52 71.68966014690062" height="71.68966014690062" width="395.52"><g><svg viewBox="0 0 502.06681210637475 91.00171705841377" height="71.68966014690062" width="395.52"><g transform="matrix(1,0,0,1,0,12.576937741068768)"><svg viewBox="0 0 395.52 65.84784157627624" height="65.84784157627624" width="395.52"><g id="textblocktransform"><svg viewBox="0 0 395.52 65.84784157627624" height="65.84784157627624" width="395.52" id="textblock"><g><svg viewBox="0 0 395.52 65.84784157627624" height="65.84784157627624" width="395.52"><g transform="matrix(1,0,0,1,0,0)"><svg width="395.52" viewBox="2.2 -40.16 245.31 40.839999999999996" height="65.84784157627624" data-palette-color="#0080ff"><path d="M6.15-4.47L6.15-30.52Q6.15-33.45 2.78-33.45L2.78-33.45Q2.25-33.45 2.25-33.64L2.25-33.64 2.25-34.23Q2.25-34.42 2.44-34.42L2.44-34.42 14.67-34.42Q14.87-34.42 14.87-34.23L14.87-34.23 14.87-33.64Q14.87-33.45 13.79-33.45 12.72-33.45 11.82-32.76 10.91-32.08 10.91-29.96L10.91-29.96 10.91-3.91Q10.91-0.98 14.31-0.98L14.31-0.98Q14.82-0.98 14.82-0.78L14.82-0.78 14.82-0.2Q14.82 0 14.62 0L14.62 0 2.39 0Q2.2 0 2.2-0.2L2.2-0.2 2.2-0.78Q2.2-0.98 3.27-0.98 4.35-0.98 5.25-1.66 6.15-2.34 6.15-4.47L6.15-4.47ZM47.29-4.03Q47.29-3.39 47.88-3.02 48.48-2.64 49.26-2.64 50.04-2.64 50.57-3.04 51.09-3.44 51.29-3.44 51.48-3.44 51.48-2.92 51.48-2.39 51-2.03L51-2.03Q47.33 0.66 46.04 0.66L46.04 0.66Q44.48 0.66 43.5-2.59L43.5-2.59Q43.43-2.83 43.38-2.81L43.38-2.81Q40.35-0.54 39.57-0.07L39.57-0.07Q37.57 1.07 35.55 0.29 33.54-0.49 32.64-2.29L32.64-2.29Q32.2-3.22 32.2-4.27L32.2-4.27Q32.2-6.35 33.74-7.57 35.27-8.79 39.59-9.91L39.59-9.91Q41.06-10.3 42.21-10.91 43.35-11.52 43.42-11.69 43.48-11.87 43.48-12.01L43.48-12.01 43.48-16.7Q43.48-19.46 41.33-20.58L41.33-20.58Q40.62-20.95 39.63-20.95 38.64-20.95 37.63-20.17 36.62-19.38 36.62-17.94L36.62-17.94 36.74-16.99Q36.59-16.7 34.98-16.02 33.37-15.33 33.12-15.28L33.12-15.28Q32.73-15.28 32.73-16.22 32.73-17.16 33.3-18.31 33.86-19.46 34.88-20.41L34.88-20.41Q37.28-22.63 40.35-22.63 43.43-22.63 45.36-20.94 47.29-19.24 47.29-16.89L47.29-16.89 47.29-4.03ZM36.03-4.74Q36.03-3.56 36.93-2.7 37.84-1.83 39-1.83 40.16-1.83 41.82-2.82 43.48-3.81 43.48-4.86L43.48-4.86 43.48-9.81Q43.48-10.08 43.35-10.08 43.23-10.08 43.18-10.06L43.18-10.06 37.52-7.42Q36.64-6.79 36.34-6.35 36.03-5.91 36.03-4.74ZM85.98-7.69L85.98-7.69 85.93-12.84Q85.93-15.99 85.39-17.26 84.86-18.53 84.03-19.18 83.2-19.82 81.79-19.82 80.39-19.82 75.85-17.63L75.85-17.63Q75.24-17.26 75.21-16.94L75.21-16.94 75.21-3.81Q75.21-1.34 77.85-0.98L77.85-0.98Q79-0.81 79-0.43 79-0.05 78.75 0L78.75 0 67.86 0Q67.62-0.05 67.62-0.34L67.62-0.34Q67.62-0.81 68.77-0.98L68.77-0.98Q71.4-1.34 71.4-3.81L71.4-3.81 71.4-15.97Q71.4-19.8 66.67-19.8L66.67-19.8Q64.93-19.8 61.86-17.75L61.86-17.75Q61.08-17.24 60.71-16.8L60.71-16.8 60.71-3.81Q60.71-1.34 63.35-0.98L63.35-0.98Q64.49-0.81 64.49-0.43 64.49-0.05 64.25 0L64.25 0 53.36 0Q53.12-0.05 53.12-0.34L53.12-0.34Q53.12-0.81 54.26-0.98L54.26-0.98Q56.9-1.34 56.9-3.76L56.9-3.76 56.9-17.82Q56.9-18.85 55.78-19.24L55.78-19.24Q55.29-19.41 54.73-19.52 54.17-19.63 53.84-19.73 53.51-19.82 53.42-19.91 53.34-20 53.34-20.28 53.34-20.56 53.7-20.75L53.7-20.75 59.93-23.68Q60.22-23.83 60.3-23.83L60.3-23.83Q60.71-23.83 60.71-23.24L60.71-23.24 60.71-19.19Q60.73-19.04 60.89-19.04 61.05-19.04 61.7-19.38 62.35-19.73 63.4-20.35 64.45-20.97 66.17-21.8 67.89-22.63 69.82-22.63L69.82-22.63Q72.92-22.63 74.26-19.97L74.26-19.97Q74.77-18.9 75.19-19.06 75.6-19.21 76.48-19.65L76.48-19.65Q78.56-20.68 80.68-21.66 82.81-22.63 84.2-22.63L84.2-22.63Q89.84-22.63 89.84-12.35L89.84-12.35 89.62-5.22 89.62-3.81Q89.62-1.9 91.52-1.32L91.52-1.32Q92.33-1.05 93.07-0.94 93.82-0.83 94.05-0.73 94.28-0.63 94.28-0.34 94.28-0.05 94.04 0L94.04 0 82.27 0Q82.02-0.05 82.02-0.34L82.02-0.34Q82.02-0.81 83.17-0.98L83.17-0.98Q85.78-1.34 85.78-4L85.78-4Q85.98-5.22 85.98-7.69ZM123.5-0.61L123.5-0.2Q123.5 0 123.3 0L123.3 0 108.95 0Q108.78 0 108.78-0.2L108.78-0.2 108.78-0.66Q108.78-0.85 109.81-0.88 110.85-0.9 112.35-1.65 113.85-2.39 113.85-3.91L113.85-3.91 113.85-30.52Q113.85-33.28 108.97-33.57L108.97-33.57Q108.78-33.57 108.78-33.76L108.78-33.76 108.78-34.23Q108.78-34.42 108.95-34.42L108.95-34.42 123.3-34.42Q123.5-34.42 123.5-34.23L123.5-34.23 123.5-33.76Q123.5-33.62 122.49-33.62 121.47-33.62 120.25-33.03L120.25-33.03Q118.62-32.25 118.62-30.47L118.62-30.47 118.62-19.7Q118.62-17.55 119.03-17.55L119.03-17.55Q120.08-17.55 121.69-18.88 123.3-20.21 124.55-21.63 125.79-23.05 127.05-24.99 128.31-26.93 128.8-27.64L128.8-27.64Q130.63-30.22 130.63-31.53 130.63-32.84 129.5-33.28L129.5-33.28Q128.77-33.57 127.4-33.57L127.4-33.57 127.16-33.57Q126.97-33.57 126.97-33.76L126.97-33.76 126.97-34.23Q126.97-34.42 127.16-34.42L127.16-34.42 141.27-34.42Q141.47-34.42 141.47-34.23L141.47-34.23 141.47-33.76Q141.47-33.47 141.17-33.47L141.17-33.47Q138.05-33.37 136.61-32.65 135.17-31.93 134.3-31.08 133.43-30.22 132.41-28.49L132.41-28.49Q129.28-23.19 126.18-20.02L126.18-20.02Q124.87-18.68 124.82-18.36L124.82-18.36Q124.94-18.12 126.82-16.41L126.82-16.41Q131.51-12.11 136.66-4.76L136.66-4.76Q138.59-1.95 141.71-1.29L141.71-1.29Q143.79-0.81 144.34-0.81 144.88-0.81 144.88-0.61L144.88-0.61 144.88-0.2Q144.88 0 144.69 0L144.69 0 128.72 0Q128.53 0 128.53-0.2L128.53-0.2 128.53-0.66Q128.53-0.85 129.36-0.93L129.36-0.93Q132.12-1.17 132.12-2.54L132.12-2.54Q131.95-3.91 127.21-9.3L127.21-9.3Q126.35-10.25 125.43-11.43L125.43-11.43Q121.72-15.99 119.32-15.99L119.32-15.99 118.86-15.99Q118.62-15.99 118.62-15.65L118.62-15.65 118.62-4.22Q118.62-0.81 123.3-0.81L123.3-0.81Q123.5-0.81 123.5-0.61L123.5-0.61ZM163.41 0.05L163.41-2.15Q163.29-2.56 163.1-2.43 162.9-2.29 161.51-1.59L161.51-1.59Q156.94 0.68 153.89 0.68 150.84 0.68 149.5-1.27L149.5-1.27Q149.01-2 149.01-3.08L149.01-3.08 149.01-17.97Q148.94-18.68 148.37-19.19L148.37-19.19Q147.62-19.82 146.8-19.87 145.98-19.92 145.98-20.37 145.98-20.83 146.37-20.92L146.37-20.92 151.96-22.53Q152.26-22.63 152.54-22.63 152.82-22.63 152.82-22.22L152.82-22.22 152.82-5.83Q152.82-4.13 154.33-3.2 155.84-2.27 158.2-2.27 160.56-2.27 162.44-3.71L162.44-3.71Q163.02-4.17 163.41-4.74L163.41-4.74 163.41-17.97Q163.34-18.68 162.78-19.19L162.78-19.19Q162.02-19.82 161.2-19.87 160.39-19.92 160.39-20.37 160.39-20.83 160.78-20.92L160.78-20.92 166.37-22.53Q166.66-22.63 166.94-22.63 167.22-22.63 167.22-22.14L167.22-22.14 167.22-4.81Q167.34-3.74 167.83-3.27 168.32-2.81 169.42-2.81L169.42-2.81 170.83-2.91Q170.98-2.91 170.98-2.62 170.98-2.34 170.61-2.17L170.61-2.17 164.12 0.51Q163.83 0.66 163.62 0.66 163.41 0.66 163.41 0.05L163.41 0.05ZM181.43-11.69L181.4-11.69Q181.11-11.69 181.11-10.5L181.11-10.5 181.11-3.71Q181.11-1.32 183.75-0.93L183.75-0.93Q184.89-0.78 184.89-0.39 184.89 0 184.65 0L184.65 0 173.76 0Q173.52-0.05 173.52-0.34L173.52-0.34Q173.52-0.78 174.67-0.93L174.67-0.93Q177.3-1.32 177.3-3.71L177.3-3.71 177.3-34.16Q177.3-35.18 176.18-35.57L176.18-35.57Q175.69-35.74 175.13-35.85 174.57-35.96 174.24-36.06 173.91-36.16 173.82-36.24 173.74-36.33 173.74-36.61 173.74-36.89 174.1-37.08L174.1-37.08 180.33-40.01Q180.62-40.16 180.7-40.16L180.7-40.16Q181.11-40.16 181.11-39.58L181.11-39.58 181.11-15.21Q181.31-14.5 181.62-14.38 181.94-14.26 182.31-14.26L182.31-14.26Q183.01-14.26 184.64-15.37 186.26-16.48 187.58-17.86 188.9-19.24 188.9-19.76 188.9-20.29 188.43-20.42 187.97-20.56 187.4-20.62 186.82-20.68 186.36-20.81 185.9-20.95 185.9-21.46 185.9-21.97 186.9-21.97L186.9-21.97 196.2-21.97Q197.05-21.97 197.05-21.41L197.05-21.41Q197.05-21.12 196.49-20.95 195.93-20.78 194.32-20.42 192.71-20.07 191.75-19.31L191.75-19.31 184.75-13.84Q184.75-13.53 185.21-13.06L185.21-13.06 195.25-2.49Q196.22-1.49 197.25-1.18 198.27-0.88 198.62-0.78 198.96-0.68 198.96-0.44L198.96-0.44Q198.96 0 198.57 0L198.57 0 187.85 0Q187.6 0 187.6-0.29L187.6-0.29Q187.6-0.73 188.21-0.85L188.21-0.85Q190.05-1.2 190.05-2.1L190.05-2.1Q190.05-2.37 189.68-2.81 189.31-3.25 189-3.66L189-3.66 181.45-11.65Q181.45-11.67 181.43-11.69L181.43-11.69ZM216-4.03Q216-3.39 216.59-3.02 217.19-2.64 217.97-2.64 218.75-2.64 219.28-3.04 219.8-3.44 220-3.44 220.19-3.44 220.19-2.92 220.19-2.39 219.71-2.03L219.71-2.03Q216.04 0.66 214.75 0.66L214.75 0.66Q213.19 0.66 212.21-2.59L212.21-2.59Q212.14-2.83 212.09-2.81L212.09-2.81Q209.06-0.54 208.28-0.07L208.28-0.07Q206.28 1.07 204.26 0.29 202.25-0.49 201.35-2.29L201.35-2.29Q200.91-3.22 200.91-4.27L200.91-4.27Q200.91-6.35 202.45-7.57 203.98-8.79 208.31-9.91L208.31-9.91Q209.77-10.3 210.92-10.91 212.06-11.52 212.13-11.69 212.19-11.87 212.19-12.01L212.19-12.01 212.19-16.7Q212.19-19.46 210.04-20.58L210.04-20.58Q209.33-20.95 208.34-20.95 207.35-20.95 206.34-20.17 205.33-19.38 205.33-17.94L205.33-17.94 205.45-16.99Q205.3-16.7 203.69-16.02 202.08-15.33 201.84-15.28L201.84-15.28Q201.44-15.28 201.44-16.22 201.44-17.16 202.01-18.31 202.57-19.46 203.59-20.41L203.59-20.41Q205.99-22.63 209.06-22.63 212.14-22.63 214.07-20.94 216-19.24 216-16.89L216-16.89 216-4.03ZM204.74-4.74Q204.74-3.56 205.64-2.7 206.55-1.83 207.71-1.83 208.87-1.83 210.53-2.82 212.19-3.81 212.19-4.86L212.19-4.86 212.19-9.81Q212.19-10.08 212.06-10.08 211.94-10.08 211.89-10.06L211.89-10.06 206.23-7.42Q205.35-6.79 205.05-6.35 204.74-5.91 204.74-4.74ZM229.13-39.58L229.13-18.9Q229.13-18.31 229.3-18.31 229.47-18.31 229.54-18.4 229.62-18.48 230.57-19.53L230.57-19.53Q233.33-22.61 236.16-22.61L236.16-22.61Q239.87-22.61 241.6-20.95L241.6-20.95Q243.73-18.85 243.73-13.89L243.73-13.89 243.73-3.71Q243.73-1.32 246.36-0.93L246.36-0.93Q247.51-0.78 247.51-0.42 247.51-0.05 247.27 0L247.27 0 236.38 0Q236.13-0.05 236.13-0.34L236.13-0.34Q236.13-0.78 237.28-0.93L237.28-0.93Q239.92-1.32 239.92-3.71L239.92-3.71 239.92-13.65Q239.92-17.24 239.41-18.31L239.41-18.31Q238.43-20.46 235.33-20.46L235.33-20.46Q233.42-20.46 231.28-18.84 229.13-17.21 229.13-15.26L229.13-15.26 229.13-3.71Q229.13-1.32 231.76-0.93L231.76-0.93Q232.91-0.78 232.91-0.42 232.91-0.05 232.67 0L232.67 0 221.78 0Q221.54-0.05 221.54-0.34L221.54-0.34Q221.54-0.78 222.68-0.93L222.68-0.93Q225.32-1.32 225.32-3.71L225.32-3.71 225.32-34.16Q225.32-35.18 224.2-35.57L224.2-35.57Q223.71-35.74 223.15-35.85 222.58-35.96 222.26-36.06 221.93-36.16 221.84-36.24 221.75-36.33 221.75-36.61 221.75-36.89 222.12-37.08L222.12-37.08 228.35-40.01Q228.64-40.16 228.71-40.16L228.71-40.16Q229.13-40.16 229.13-39.58L229.13-39.58Z" opacity="1" transform="matrix(1,0,0,1,0,0)" fill="#ffffff" class="wordmark-text-0" data-fill-palette-color="primary" id="text-0"></path></svg></g></svg></g></svg></g></svg></g><g transform="matrix(1,0,0,1,411.065095047961,0)"><svg viewBox="0 0 91.00171705841377 91.00171705841377" height="91.00171705841377" width="91.00171705841377"><g data-palette-color="#0023ff"><rect width="24.873802662633096" height="91.00171705841377" fill="#ffffff" stroke="transparent" data-fill-palette-color="accent" x="0" fill-opacity="1"></rect><rect width="24.873802662633096" height="91.00171705841377" fill="#ffffff" stroke="transparent" data-fill-palette-color="accent" x="30.333905686137925" fill-opacity="0.75"></rect><rect width="24.873802662633096" height="91.00171705841377" fill="#ffffff" stroke="transparent" data-fill-palette-color="accent" x="60.66781137227585" fill-opacity="0.5"></rect></g></svg></g></svg></g><defs></defs></svg><rect width="395.52" height="71.68966014690062" fill="none" stroke="none" visibility="hidden"></rect></g></svg></g></svg>